<svg xmlns="http://www.w3.org/2000/svg" width="7.906" height="14" viewBox="0 0 7.906 14">
  <metadata><?xpacket begin="﻿" id="W5M0MpCehiHzreSzNTczkc9d"?>
<x:xmpmeta xmlns:x="adobe:ns:meta/" x:xmptk="Adobe XMP Core 5.6-c142 79.160924, 2017/07/13-01:06:39        ">
   <rdf:RDF xmlns:rdf="http://www.w3.org/1999/02/22-rdf-syntax-ns#">
      <rdf:Description rdf:about=""/>
   </rdf:RDF>
</x:xmpmeta>                    
<?xpacket end="w"?></metadata>
<defs>
    <style>
      .cls-1 {
        fill: #883eca;
        fill-rule: evenodd;
      }
    </style>
  </defs>
  <path id="Прямоугольник_4_копия" data-name="Прямоугольник 4 копия" class="cls-1" d="M270.44,3042.06l-5.618,5.66a0.99,0.99,0,0,1-1.405,0,1.012,1.012,0,0,1,0-1.42l5.618-5.65a0.973,0.973,0,0,1,1.4,0A1,1,0,0,1,270.44,3042.06Zm0.291-.71a0.99,0.99,0,0,1-1.4,0l-5.618-5.65a1.012,1.012,0,0,1,0-1.42,0.99,0.99,0,0,1,1.4,0l5.618,5.66A1,1,0,0,1,270.731,3041.35Z" transform="translate(-263.125 -3034)"/>
</svg>
